<?xml version="1.0" standalone="no"?>
<!DOCTYPE svg PUBLIC "-//W3C//DTD SVG 20010904//EN"
 "http://www.w3.org/TR/2001/REC-SVG-20010904/DTD/svg10.dtd">
<svg version="1.0" xmlns="http://www.w3.org/2000/svg"
 width="512.000000pt" height="512.000000pt" viewBox="0 0 512.000000 512.000000"
 preserveAspectRatio="xMidYMid meet">
<metadata>
Created by potrace 1.16, written by Peter Selinger 2001-2019
</metadata>
<g transform="translate(0.000000,512.000000) scale(0.100000,-0.100000)"
fill="#000000" stroke="none">
<path d="M2094 3740 c-257 -67 -480 -283 -540 -521 -15 -58 -21 -67 -63 -95
-54 -36 -107 -117 -117 -179 l-6 -43 -58 -10 c-88 -16 -176 -65 -251 -142
-113 -114 -167 -262 -156 -424 14 -213 124 -375 305 -448 l57 -23 648 -3 647
-3 0 -79 c0 -103 14 -120 96 -120 31 0 183 -9 337 -20 l282 -21 55 28 c73 38
100 79 100 154 l0 59 151 0 150 0 -28 51 -28 50 30 22 c54 38 102 95 131 154
26 51 29 69 29 153 0 83 -3 102 -28 151 -15 31 -50 78 -79 105 l-51 48 -2 100
c-1 57 -10 129 -19 166 -44 165 -160 309 -302 378 -76 35 -83 37 -184 37 -58
0 -118 -3 -135 -8 -28 -7 -33 -4 -77 56 -46 62 -127 134 -180 157 -14 7 -41
33 -60 57 -40 55 -150 143 -221 177 -120 59 -293 73 -433 36z m299 -75 c89
-23 176 -72 245 -138 55 -53 62 -64 57 -88 -6 -26 -3 -29 32 -38 53 -15 126
-65 167 -115 43 -52 110 -176 135 -249 l20 -57 -23 0 c-18 0 -28 12 -47 53
-33 71 -156 193 -238 236 -87 46 -150 61 -256 61 -160 0 -303 -66 -423 -195
-67 -71 -106 -143 -132 -242 -17 -65 -19 -68 -54 -75 -127 -27 -226 -149 -226
-278 0 -118 74 -210 168 -210 30 0 52 16 52 37 0 7 -11 13 -25 13 -70 0 -118
60 -118 149 0 31 7 69 15 86 37 70 115 122 198 132 l48 6 13 65 c24 132 107
256 221 331 90 61 177 84 292 79 83 -3 102 -8 168 -40 117 -59 203 -151 253
-274 l23 -58 52 -3 c140 -8 246 -120 271 -285 5 -35 6 -83 1 -108 l-8 -45
-336 -5 c-302 -4 -340 -7 -358 -22 -19 -17 -20 -29 -20 -223 l0 -205 -642 0
c-407 0 -656 4 -680 10 -206 58 -311 365 -204 597 66 142 225 243 380 243 l61
0 0 79 c0 74 2 82 31 118 17 21 49 47 72 57 39 20 40 21 52 93 37 229 252 447
500 508 75 18 194 18 263 0z m882 -470 c86 -23 149 -61 213 -130 102 -109 142
-213 142 -368 0 -100 -16 -115 -35 -31 -26 113 -122 231 -232 282 -43 19 -78
27 -134 30 l-76 4 -37 93 c-20 51 -36 98 -36 103 0 11 65 29 110 31 14 1 52
-6 85 -14z m50 -306 c110 -41 205 -170 205 -279 l0 -39 61 -17 c84 -24 149
-77 185 -151 38 -77 41 -185 6 -250 -59 -112 -142 -163 -271 -166 l-81 -2 0
145 c0 160 -14 213 -63 245 -22 14 -24 20 -16 48 16 55 10 170 -11 238 -23 77
-75 156 -130 200 -21 17 -37 36 -34 40 10 16 93 9 149 -12z m-47 -556 c4 -10
7 -156 7 -325 0 -232 -3 -310 -13 -320 -9 -9 -46 -10 -180 0 -347 25 -457 34
-461 38 -7 7 -14 591 -8 608 6 14 45 16 327 16 296 0 321 -1 328 -17z"/>
<path d="M3060 2015 l0 -305 28 0 27 0 3 243 c1 133 -1 270 -4 305 -5 57 -7
62 -30 62 l-24 0 0 -305z"/>
<path d="M2837 2204 c-38 -38 -44 -85 -17 -129 19 -30 21 -43 15 -100 l-7 -65
66 0 c64 0 66 1 62 23 -17 85 -16 106 9 143 28 42 29 49 14 92 -22 63 -96 82
-142 36z m91 -75 c4 -34 -20 -54 -47 -39 -20 10 -29 49 -14 64 4 4 19 6 33 4
19 -2 26 -10 28 -29z"/>
</g>
</svg>