<?xml version="1.0" standalone="no"?>
<!DOCTYPE svg PUBLIC "-//W3C//DTD SVG 20010904//EN"
 "http://www.w3.org/TR/2001/REC-SVG-20010904/DTD/svg10.dtd">
<svg version="1.0" xmlns="http://www.w3.org/2000/svg"
 width="512.000000pt" height="512.000000pt" viewBox="0 0 512.000000 512.000000"
 preserveAspectRatio="xMidYMid meet">
<metadata>
Created by potrace 1.16, written by Peter Selinger 2001-2019
</metadata>
<g transform="translate(0.000000,512.000000) scale(0.100000,-0.100000)"
fill="#000000" stroke="none">
<path d="M940 4718 c120 -34 165 -196 84 -300 -25 -31 -24 -31 9 4 43 43 56
107 37 171 -22 78 -86 138 -142 136 -17 -1 -14 -3 12 -11z"/>
<path d="M821 4694 c-54 -38 -77 -156 -46 -231 8 -20 32 -51 52 -71 l37 -35
-67 5 c-37 2 -67 1 -67 -2 0 -3 66 -11 148 -18 165 -14 256 -14 147 -1 -38 5
-81 11 -95 12 -14 2 -30 5 -37 5 -24 3 -86 67 -104 107 -35 76 -22 155 34 213
34 35 34 41 -2 16z"/>
<path d="M877 4639 c-11 -6 -25 -26 -33 -44 -29 -70 15 -145 84 -145 87 0 117
106 50 178 -23 24 -70 29 -101 11z"/>
<path d="M1534 4538 c-23 -26 -24 -29 -4 -12 14 12 30 24 37 28 6 3 100 -3
208 -14 109 -12 204 -19 214 -17 9 2 -15 7 -54 11 -38 4 -128 14 -198 22 -171
19 -169 19 -203 -18z"/>
<path d="M1204 4519 c-31 -16 -44 -51 -44 -119 0 -52 -4 -66 -34 -107 -50 -70
-108 -192 -157 -328 -23 -66 -46 -124 -50 -129 -6 -7 -264 5 -404 20 -32 3
-45 2 -35 -4 8 -5 110 -15 225 -22 116 -7 211 -14 212 -14 1 -1 -11 -42 -27
-91 -17 -48 -30 -95 -29 -104 0 -9 16 31 34 89 l34 105 83 -7 c46 -3 100 -7
121 -7 l37 -1 0 -190 0 -190 -52 0 c-29 0 -104 5 -167 10 -63 6 -118 7 -122 3
-4 -5 25 -9 64 -11 40 -1 85 -5 101 -8 29 -6 29 -6 23 -68 -4 -33 -2 -77 2
-96 7 -27 9 -14 10 63 l1 99 73 -4 72 -3 3 197 c2 177 4 197 20 201 16 4 16 5
0 6 -17 1 -18 19 -18 233 0 127 -2 229 -5 226 -3 -3 -5 -107 -5 -232 l-1 -227
-87 6 c-48 3 -101 8 -118 11 l-31 4 43 123 c55 152 122 292 163 339 28 33 31
41 31 106 0 89 18 116 76 114 44 -2 330 -30 384 -37 23 -4 30 -2 20 3 -8 5
-94 17 -190 26 -96 9 -188 19 -205 21 -16 2 -40 0 -51 -6z"/>
<path d="M2305 4510 c33 -5 294 -32 580 -60 286 -28 631 -62 766 -75 248 -25
296 -29 288 -21 -2 2 -98 14 -214 25 -932 92 -1331 131 -1400 135 -78 5 -78 5
-20 -4z"/>
<path d="M4413 4502 c35 -39 3 -97 -45 -84 -14 3 -19 1 -14 -6 10 -17 37 -15
64 4 26 18 30 65 6 88 -22 22 -31 20 -11 -2z"/>
<path d="M1680 4483 c0 -12 398 -48 500 -46 41 1 302 -21 580 -47 278 -27 663
-63 855 -81 193 -17 353 -36 356 -42 4 -5 5 -336 2 -736 l-5 -726 -31 -5 c-39
-7 -135 -5 -183 5 -31 5 -35 9 -29 28 4 12 9 45 12 74 l5 52 57 4 56 3 -62 2
-63 2 0 -44 c0 -23 -5 -57 -11 -75 -10 -29 -14 -31 -59 -31 l-49 0 -4 43 -4
42 -1 -44 -2 -44 -57 6 c-32 4 -157 9 -278 13 -163 4 -241 11 -301 25 -45 10
-110 18 -145 18 l-64 -2 81 -7 c45 -4 110 -14 145 -23 55 -14 496 -38 683 -37
l39 0 -19 -22 c-24 -27 -105 -79 -114 -73 -18 11 -175 -325 -222 -475 -62
-200 -48 -322 45 -406 29 -25 55 -52 59 -59 7 -11 -161 96 -202 128 -8 7 -18
12 -21 12 -3 0 -41 24 -85 53 -67 44 -84 60 -102 100 -12 27 -22 51 -22 55 0
3 27 20 60 38 122 65 197 156 244 297 14 42 26 82 25 87 0 6 -14 -28 -29 -74
-16 -46 -40 -102 -54 -125 -35 -60 -123 -139 -194 -175 l-62 -31 0 23 c0 13 3
52 6 86 6 50 10 61 25 61 26 0 39 30 46 105 6 64 6 64 47 80 42 17 110 75 128
110 5 11 -8 -1 -31 -26 -41 -47 -130 -95 -157 -85 -11 4 -14 25 -12 88 1 69 2
76 8 38 9 -62 24 -27 18 40 -6 58 -41 113 -95 150 -32 22 -50 26 -148 30 -112
5 -145 16 -145 46 0 44 -83 -30 -95 -84 -3 -17 -1 -48 4 -70 9 -32 8 -47 -5
-78 -12 -28 -15 -58 -12 -105 4 -57 2 -68 -13 -78 -23 -14 -24 -41 -4 -109 10
-33 22 -53 35 -57 21 -7 28 -33 32 -125 2 -56 -1 -70 -20 -94 -12 -16 -22 -34
-22 -41 0 -12 -15 -20 -241 -128 -98 -47 -143 -74 -159 -96 -26 -38 -34 -38
-118 -5 -169 67 -317 186 -470 377 -34 43 -62 74 -62 70 0 -18 142 -182 226
-263 98 -94 176 -143 301 -193 46 -17 83 -35 83 -38 0 -16 -53 -99 -63 -99
-22 0 -162 66 -232 109 -155 96 -325 250 -436 396 -117 154 -260 397 -324 552
-13 32 -24 53 -25 47 0 -15 46 -126 87 -209 51 -101 250 -398 330 -490 84 -97
193 -193 307 -268 88 -59 258 -147 284 -147 8 0 12 -6 10 -12 -3 -7 -27 -73
-54 -145 l-49 -133 -220 -2 -220 -3 218 -2 c168 -3 218 -6 214 -16 -2 -8 -49
-14 -158 -17 l-154 -6 152 -2 151 -2 -7 -28 -8 -27 -174 2 c-119 1 -161 -1
-134 -7 22 -5 98 -9 169 -9 l128 -1 -16 -23 c-9 -12 -26 -42 -39 -67 -12 -24
-32 -54 -45 -65 -13 -11 -49 -58 -80 -105 -39 -58 -64 -86 -80 -88 -12 -2 -22
-1 -22 2 0 19 -105 416 -116 437 -18 35 -45 39 -297 39 -115 0 -206 4 -203 8
4 8 -95 286 -106 297 -2 2 -136 -19 -298 -48 -162 -28 -288 -53 -279 -55 9 -2
131 17 270 42 140 24 265 46 278 48 21 3 27 -8 77 -137 29 -76 52 -140 51
-140 -54 -22 -57 -25 -57 -59 0 -19 4 -45 9 -58 4 -13 11 -35 15 -50 l6 -28
-255 0 -255 0 -10 24 c-5 14 -19 30 -32 36 -13 7 -34 24 -47 38 -13 15 -20 20
-16 12 13 -24 48 -60 59 -60 6 0 19 -14 28 -30 l17 -30 257 -2 258 -3 51 -208
c31 -127 56 -212 65 -217 8 -5 36 -10 63 -10 43 0 47 -2 47 -25 0 -13 -5 -47
-11 -74 l-11 -51 -40 7 c-32 5 -40 3 -36 -8 4 -12 74 -14 412 -17 325 -2 407
0 404 10 -4 10 -50 14 -181 16 -107 1 -177 6 -177 12 0 6 11 10 24 10 26 0
272 87 343 121 65 31 138 89 177 140 19 25 46 53 61 63 15 10 24 20 21 23 -3
3 -17 -2 -31 -11 -24 -16 -34 -10 -16 9 5 6 21 33 35 60 l27 50 -5 -160 c-7
-179 1 -230 39 -262 22 -19 25 -28 19 -58 l-6 -35 -727 -2 -726 -3 -3 -22 c-3
-17 3 -24 22 -29 25 -6 26 -9 26 -78 0 -43 5 -77 12 -84 9 -9 74 -12 230 -12
l218 0 0 -110 0 -110 -212 -3 -213 -2 213 -3 212 -2 0 -56 c0 -34 4 -53 10
-49 5 3 10 28 10 56 l0 49 125 0 125 0 0 -50 c0 -27 5 -50 10 -50 6 0 10 23
10 50 l0 50 109 0 110 0 4 -52 3 -53 2 53 2 52 159 0 160 0 -5 -37 c-3 -21 -7
-46 -9 -56 -3 -16 13 -17 262 -15 l266 3 23 60 c20 52 23 56 23 29 1 -17 4
-46 7 -63 l7 -31 227 0 228 0 8 58 9 57 492 3 492 4 4 -54 3 -53 2 52 2 53
193 2 192 3 3 207 2 207 98 3 c92 3 97 4 100 26 3 22 3 22 -142 22 l-146 0 0
40 c0 29 -4 40 -15 40 -11 0 -15 -11 -15 -38 l0 -39 -407 -6 c-223 -4 -514 -7
-645 -7 l-238 0 0 35 c0 27 4 35 18 35 26 0 79 36 86 58 6 17 20 20 114 26 59
4 116 9 127 12 16 4 20 0 22 -22 0 -15 7 -31 15 -36 13 -9 1325 0 1341 9 4 2
7 170 7 373 0 326 -2 369 -16 374 -9 3 -239 6 -512 6 l-497 0 33 20 c22 14 32
27 32 45 0 24 2 25 71 25 71 0 109 11 109 32 0 6 -8 4 -18 -5 -14 -13 -38 -17
-90 -17 l-72 0 0 535 0 535 48 0 c26 0 53 -5 59 -11 13 -13 36 -2 30 14 -2 8
-26 11 -71 9 l-67 -4 5 94 c4 51 6 184 5 295 -1 192 0 202 20 224 19 21 21 34
21 141 0 113 1 120 25 143 23 24 23 33 -1 17 -26 -17 -34 -56 -34 -159 0 -81
-4 -114 -15 -129 -13 -17 -14 41 -15 496 0 283 -4 520 -8 527 -5 7 -76 18
-192 28 -175 15 -867 81 -1325 126 -115 11 -228 19 -250 16 -38 -4 -416 26
-497 39 -21 3 -38 2 -38 -3z m2153 -1699 c37 -6 38 -7 18 -20 -17 -13 -19 -18
-9 -40 12 -25 12 -25 20 -5 5 15 16 21 37 21 16 0 33 -5 36 -10 8 -14 25 -3
25 16 0 13 -8 14 -40 9 -32 -5 -40 -4 -40 8 0 11 13 16 45 19 l45 3 0 -77 c0
-67 -2 -78 -17 -79 -17 -1 -17 -2 0 -6 15 -4 17 -22 17 -205 l0 -201 -171 5
c-100 4 -166 2 -158 -3 8 -5 85 -9 172 -9 l157 0 0 -353 c0 -391 4 -366 -65
-398 -18 -9 -31 -23 -33 -37 -3 -21 -6 -22 -133 -22 -71 0 -129 2 -129 4 0 18
-85 238 -109 283 -17 31 -31 64 -31 74 0 16 -67 89 -82 89 -4 0 -20 21 -35 48
-26 43 -28 55 -27 147 1 123 32 226 135 449 81 174 98 200 147 225 21 11 51
33 67 51 32 34 27 33 158 14z m-863 -14 c36 -18 90 -76 90 -96 0 -5 -11 8 -25
29 -32 46 -75 69 -145 78 l-55 6 48 2 c30 0 62 -6 87 -19z m-147 3 c-7 -2 -19
-2 -25 0 -7 3 -2 5 12 5 14 0 19 -2 13 -5z m1041 -28 c-4 -8 -8 -15 -10 -15
-2 0 -4 7 -4 15 0 8 4 15 10 15 5 0 7 -7 4 -15z m-809 -386 c-11 -25 -14 -27
-10 -9 3 14 9 50 13 80 l7 55 3 -46 c2 -27 -3 -61 -13 -80z m-426 -7 c7 -14 8
-23 1 -27 -14 -9 -40 57 -39 97 l1 33 13 -41 c7 -23 18 -51 24 -62z m364 -145
l-6 -87 -26 8 c-14 4 -86 7 -158 6 l-133 0 0 31 c0 18 -3 54 -6 81 l-6 49 21
-33 c31 -49 77 -72 141 -72 71 0 139 32 160 77 8 17 16 30 17 29 1 -1 0 -41
-4 -89z m-1 -111 c9 -4 21 -20 26 -34 l9 -27 -198 0 c-130 0 -199 4 -199 10 0
20 30 54 53 58 33 8 289 1 309 -7z m9 -85 c34 -5 94 -37 225 -120 224 -142
233 -150 227 -204 -12 -115 -56 -272 -73 -262 -4 3 -18 34 -31 70 -12 35 -24
63 -27 61 -7 -8 30 -121 45 -139 20 -21 14 -44 -62 -237 -55 -141 -95 -254
-95 -267 1 -4 14 16 29 46 l28 54 16 -109 c27 -175 23 -204 -35 -223 -129 -42
-409 -77 -525 -66 l-78 8 80 21 c98 26 191 70 206 97 9 18 6 17 -28 -5 -21
-13 -65 -34 -98 -45 -55 -18 -71 -19 -170 -10 -128 12 -189 36 -218 86 -10 18
-25 72 -34 119 l-14 86 23 16 c76 53 179 174 223 262 21 43 17 39 -74 -77 -74
-94 -157 -176 -174 -170 -5 1 -22 36 -38 77 l-29 75 21 48 c11 27 19 56 17 65
-3 17 -65 -82 -123 -198 -15 -30 -46 -72 -69 -92 -36 -34 -39 -38 -18 -38 33
0 27 -14 -31 -73 -60 -61 -179 -125 -287 -152 l-65 -17 -22 27 c-39 44 -31 88
33 191 31 49 59 92 62 96 4 4 6 -23 5 -60 l-1 -67 9 74 c11 78 38 151 39 103
0 -29 20 -19 21 11 0 12 7 -1 16 -30 9 -31 27 -62 46 -80 29 -26 30 -26 14 -3
-56 81 -70 166 -36 220 l23 35 11 -55 c15 -73 38 -115 27 -50 -16 99 -7 159
48 310 66 183 107 271 158 347 33 49 53 66 109 95 106 56 305 146 333 151 42
7 312 6 361 -2z m489 -340 c51 -102 210 -626 210 -695 0 -41 -32 -91 -72 -116
-37 -23 -130 -52 -231 -73 -78 -17 -67 -30 -88 110 l-12 81 29 26 29 25 30
-37 c44 -54 75 -82 117 -103 58 -30 55 -23 -9 25 -57 42 -123 124 -123 154 0
9 19 -3 48 -30 42 -39 112 -91 152 -113 20 -10 10 -1 -97 94 -93 82 -123 124
-123 170 0 18 20 94 45 169 59 182 77 262 69 312 -8 51 0 51 26 1z m1424 -237
c14 -5 16 -47 16 -364 0 -198 -3 -361 -7 -363 -5 -2 -305 -6 -668 -8 l-660 -4
-3 31 c-3 27 1 33 24 38 15 4 40 16 55 27 21 15 44 19 104 19 l77 0 -4 -29
c-2 -17 -1 -28 4 -25 4 3 8 16 8 30 0 24 1 24 98 26 l97 2 -98 3 -99 4 4 55
c3 53 3 54 -22 50 -14 -3 -42 -8 -62 -12 -21 -3 -38 -10 -38 -14 0 -4 17 -4
38 1 68 16 72 14 72 -36 l0 -45 -79 0 -80 0 11 33 c6 17 16 35 22 39 7 5 7 8
1 8 -6 0 -9 24 -7 60 2 34 -3 81 -12 111 -8 29 -12 57 -9 62 9 15 53 -35 65
-75 l11 -37 29 24 c38 32 52 23 45 -31 l-5 -44 44 0 c32 0 44 -4 44 -15 0 -8
-8 -15 -17 -16 -10 0 -13 -3 -7 -5 6 -3 23 2 38 10 21 10 36 12 62 4 61 -16
126 7 194 68 44 40 58 81 39 116 -7 13 -12 32 -10 42 3 18 1 19 -21 4 -22 -14
-26 -14 -58 8 -58 40 -127 29 -215 -35 -27 -20 -73 -50 -101 -67 l-51 -31 -23
44 c-23 44 -53 69 -69 58 -5 -3 -12 9 -16 27 -4 18 -17 70 -31 114 -13 45 -24
85 -24 88 0 3 56 6 125 6 l124 0 4 -127 3 -128 2 146 c1 80 5 149 9 152 8 9
1006 9 1027 1z m-3619 -94 c3 -5 -1 -10 -9 -10 -9 0 -16 5 -16 10 0 6 4 10 9
10 6 0 13 -4 16 -10z m-75 -88 c53 -7 51 -7 -45 -12 -104 -6 -126 -3 -104 11
17 11 76 11 149 1z m377 -220 l42 -167 -21 -16 c-16 -13 -61 -17 -236 -22
-119 -4 -220 -3 -224 1 -9 9 -88 333 -88 359 0 10 48 13 243 13 l242 0 42
-168z m2537 145 c16 -12 16 -14 -6 -25 -13 -6 -36 -16 -51 -22 -66 -24 10 -41
84 -18 22 6 42 8 47 4 7 -8 -41 -56 -87 -89 -14 -9 -22 -19 -19 -23 9 -8 44
12 91 54 41 36 41 36 23 7 -23 -36 -38 -49 -88 -75 -44 -24 -76 -25 -123 -6
l-34 15 15 36 c15 37 13 46 -18 81 -18 20 -18 21 29 42 82 36 109 40 137 19z
m-818 -69 c-19 -27 -20 -22 -4 23 8 23 13 28 16 17 2 -10 -4 -28 -12 -40z
m-998 -65 c17 -43 36 -107 42 -142 13 -70 40 -132 74 -169 38 -42 76 -55 181
-61 l100 -6 -93 -19 c-111 -22 -195 -18 -268 13 -82 35 -88 59 -79 287 4 96 9
174 11 174 1 0 16 -35 32 -77z m1027 35 c-1 -12 -11 -28 -23 -36 -20 -13 -22
-13 -22 3 0 18 27 55 40 55 4 0 6 -10 5 -22z m345 -219 c-12 -42 -28 -59 -76
-80 -38 -17 -269 -47 -280 -36 -2 2 24 10 58 16 113 22 246 70 276 101 15 16
28 29 29 30 1 0 -2 -14 -7 -31z m-1997 -10 c-19 -39 -12 -102 17 -141 25 -34
6 -39 -33 -8 -31 25 -50 78 -41 115 5 20 53 65 71 65 1 0 -5 -14 -14 -31z
m-44 -150 c12 -15 21 -31 21 -35 0 -12 -89 3 -115 20 -14 9 -25 25 -25 36 0
24 -33 26 -70 5 -55 -32 -69 -9 -16 27 l33 23 -171 -3 c-94 -2 -169 -2 -166 1
3 3 87 8 186 11 179 5 267 18 282 40 3 6 10 -13 13 -43 4 -29 17 -66 28 -82z
m2511 -184 c-14 -15 -87 -50 -191 -90 -192 -76 -197 -80 -258 -210 l-40 -85
-216 0 c-203 0 -217 1 -210 18 4 9 14 45 22 80 l16 62 -37 114 c-20 62 -36
116 -36 120 0 3 179 7 398 9 218 1 437 3 486 5 l89 2 -23 -25z m58 -177 l-3
-203 -266 -3 -266 -2 40 82 c61 129 60 129 269 208 92 35 149 63 175 86 21 18
41 33 46 34 4 0 6 -91 5 -202z m392 3 c0 -172 -2 -200 -16 -205 -9 -3 -94 -6
-190 -6 l-174 0 0 205 0 205 190 0 190 0 0 -199z m-2990 100 l0 -78 -92 -7
c-50 -3 -106 -6 -125 -6 l-33 0 0 79 0 80 43 4 c23 2 79 4 125 5 l82 2 0 -79z
m240 -1 l0 -80 -110 0 -110 0 0 80 0 80 110 0 110 0 0 -80z m402 63 c-4 -10
-29 -60 -55 -112 -52 -104 -54 -118 -32 -181 28 -80 31 -77 -112 -82 -71 -2
-141 -1 -156 2 l-28 5 -2 105 -2 105 80 3 c97 4 114 0 155 -34 17 -15 33 -24
36 -21 3 3 -13 19 -37 36 -40 29 -47 31 -138 31 l-96 0 -3 80 -3 80 200 0
c187 0 200 -1 193 -17z m545 -60 c-2 -16 -4 -3 -4 27 0 30 2 43 4 28 2 -16 2
-40 0 -55z m-1457 -13 l0 -80 -219 0 c-251 0 -231 -9 -231 103 l0 57 225 0
225 0 0 -80z m1133 63 c-7 -2 -19 -2 -25 0 -7 3 -2 5 12 5 14 0 19 -2 13 -5z
m105 -10 c-10 -2 -28 -2 -40 0 -13 2 -5 4 17 4 22 1 32 -1 23 -4z m209 -170
c-3 -10 -5 -2 -5 17 0 19 2 27 5 18 2 -10 2 -26 0 -35z m-937 -78 l0 -115
-110 0 -110 0 0 110 0 109 63 4 c34 2 83 4 110 5 l47 2 0 -115z m-234 83 c-3
-13 -6 -62 -6 -110 l0 -88 -125 0 -125 0 0 110 0 110 131 0 c131 0 131 0 125
-22z"/>
<path d="M3863 2625 c-3 -9 -3 -18 -1 -21 3 -3 8 4 11 16 6 23 -1 27 -10 5z"/>
<path d="M3852 2559 l-2 -37 -67 -7 c-142 -15 -230 -64 -270 -150 -13 -29 -35
-60 -49 -69 -13 -10 -22 -21 -19 -26 3 -6 -1 -7 -9 -4 -10 4 -20 -10 -35 -51
-41 -108 -21 -246 48 -344 43 -60 51 -45 51 107 1 105 4 142 15 156 8 11 15
25 15 30 0 6 -9 -2 -20 -19 -17 -26 -20 -47 -20 -164 0 -134 0 -134 -20 -116
-11 10 -32 43 -48 74 -24 49 -27 68 -27 151 0 72 4 103 18 127 17 31 18 32 37
15 45 -41 44 -40 68 -9 27 38 27 42 2 67 l-21 21 27 55 c42 86 125 126 283
138 46 3 86 8 89 11 3 3 -4 5 -16 5 -17 0 -22 7 -25 38 l-4 37 -1 -36z m-334
-293 c4 -18 -21 -46 -40 -46 -10 0 -11 54 -1 64 13 12 38 1 41 -18z"/>
<path d="M3920 2485 c-7 -8 -8 -15 -2 -15 5 0 15 7 22 15 7 8 8 15 2 15 -5 0
-15 -7 -22 -15z"/>
<path d="M3688 2383 c39 -2 105 -2 145 0 39 1 7 3 -73 3 -80 0 -112 -2 -72 -3z"/>
<path d="M3617 2294 c-19 -19 2 -24 104 -24 84 0 110 3 107 13 -5 13 -198 23
-211 11z"/>
<path d="M3603 2073 c48 -2 125 -2 170 0 45 1 6 3 -88 3 -93 0 -130 -2 -82 -3z"/>
<path d="M3630 1840 l0 -180 45 0 45 0 0 180 0 180 -45 0 -45 0 0 -180z"/>
<path d="M3740 1785 l0 -125 50 0 50 0 0 125 0 125 -50 0 -50 0 0 -125z"/>
<path d="M3506 1848 c-11 -43 -6 -129 9 -158 13 -26 21 -30 55 -30 l40 0 0
105 0 105 -49 0 c-42 0 -49 -3 -55 -22z"/>
<path d="M3550 1632 c0 -5 7 -32 15 -60 l16 -52 134 0 135 0 0 54 c0 40 -4 55
-16 60 -24 9 -284 7 -284 -2z"/>
<path d="M2821 1698 c-13 -76 -25 -138 -26 -138 -2 0 -2 55 0 123 4 132 6 139
-25 -103 -24 -187 -77 -344 -154 -460 l-36 -55 41 45 c64 70 116 184 173 380
36 124 58 242 54 297 -3 40 -7 26 -27 -89z m-34 -180 c-3 -8 -6 -5 -6 6 -1 11
2 17 5 13 3 -3 4 -12 1 -19z"/>
<path d="M2265 1795 c36 -90 67 -187 74 -229 l8 -51 23 50 c16 33 25 72 26
115 l3 65 -8 -51 c-5 -28 -14 -68 -21 -89 l-12 -37 -38 111 c-20 62 -43 118
-50 124 -10 10 -11 8 -5 -8z"/>
<path d="M2951 1747 c-42 -114 -56 -220 -55 -427 1 -197 18 -357 49 -465 l15
-50 -5 50 c-3 28 -13 104 -22 170 -33 244 -18 584 33 728 22 61 9 56 -15 -6z"/>
<path d="M3343 1695 c0 -33 2 -45 4 -27 2 18 2 45 0 60 -2 15 -4 0 -4 -33z"/>
<path d="M2281 1594 c-2 -62 52 -295 65 -281 3 3 -52 268 -61 292 -2 6 -4 0
-4 -11z"/>
<path d="M3101 1420 c-1 -74 35 -227 74 -308 19 -41 38 -72 41 -69 3 3 -3 22
-14 44 -28 54 -60 165 -82 280 -14 78 -18 89 -19 53z"/>
<path d="M2058 883 c6 -2 18 -2 25 0 6 3 1 5 -13 5 -14 0 -19 -2 -12 -5z"/>
<path d="M3963 1314 c-2 -6 -2 -40 0 -75 l3 -64 2 73 c2 87 13 92 60 26 12
-17 18 -35 14 -39 -4 -4 0 -6 8 -3 13 4 59 73 60 90 0 12 -142 5 -147 -8z
m112 -40 l-17 -26 -17 28 -18 29 31 5 c38 6 43 -3 21 -36z"/>
<path d="M4334 1155 c0 -93 2 -133 3 -88 2 45 2 122 0 170 -1 48 -3 12 -3 -82z"/>
<path d="M4823 1250 c-5 -19 -14 -20 -220 -20 -147 0 -212 -3 -208 -10 5 -7
76 -10 211 -8 l203 4 -17 -31 -18 -30 -190 -5 -189 -6 183 -2 183 -2 -18 -30
-17 -30 -166 -2 -165 -2 163 -3 162 -3 -16 -25 c-16 -25 -19 -25 -163 -27
l-146 -2 142 -3 143 -4 -26 -39 -26 -39 -107 -4 c-99 -3 -97 -3 27 -4 72 0
132 3 132 8 0 4 -7 9 -15 11 -12 2 -11 9 6 36 21 32 22 32 107 34 l87 2 -83 5
-83 6 16 23 c14 19 26 22 83 24 l67 2 -63 3 -63 4 18 29 c14 25 24 30 58 32
l40 1 -37 4 -37 4 25 36 c13 20 31 41 41 48 9 7 13 17 9 23 -11 18 -27 14 -33
-8z"/>
<path d="M4267 853 c-4 -3 -7 -16 -7 -28 0 -22 1 -22 276 -29 152 -4 278 -5
282 -2 3 3 -49 6 -116 6 -115 0 -122 1 -122 20 0 19 7 20 123 21 105 2 113 3
62 9 -76 10 -489 12 -498 3z"/>
<path d="M4372 733 c59 -2 158 -2 220 0 62 1 14 3 -107 3 -121 0 -172 -2 -113
-3z"/>
<path d="M1500 1157 c0 -15 10 -75 21 -133 17 -79 19 -108 10 -117 -8 -8 -11
-4 -11 18 0 34 -48 229 -49 203 -1 -9 8 -54 19 -100 21 -89 26 -134 11 -108
-5 8 -15 49 -22 90 -11 68 -13 72 -20 42 -3 -18 -3 -50 2 -70 5 -20 9 -46 9
-56 0 -20 0 -20 -14 -1 -8 11 -12 23 -9 28 2 4 0 13 -5 20 -6 7 -12 25 -14 39
-2 15 -7 30 -11 34 -12 12 -8 -34 9 -100 15 -60 17 -63 43 -61 15 1 33 5 39 9
7 4 12 2 12 -5 0 -8 4 -8 15 1 10 9 15 9 15 1 0 -6 7 -11 15 -11 19 0 20 -8
-19 153 -35 141 -46 172 -46 124z"/>
<path d="M1223 1118 c4 -13 16 -68 28 -123 23 -109 32 -126 52 -106 9 11 9 14
0 18 -8 3 -11 14 -7 30 5 20 4 24 -6 18 -10 -6 -12 -1 -8 18 3 15 2 24 -2 22
-10 -6 -52 124 -45 136 4 5 1 9 -5 9 -8 0 -10 -9 -7 -22z"/>
<path d="M1144 1090 c28 -136 49 -210 61 -210 10 0 11 9 2 43 -6 23 -16 48
-23 54 -7 7 -15 34 -19 61 -3 26 -11 54 -16 62 -7 11 -8 8 -5 -10z"/>
<path d="M1291 1088 c0 -13 8 -63 18 -113 18 -91 28 -106 66 -91 12 4 12 11 0
48 -7 24 -16 64 -20 91 -4 32 -11 47 -21 47 -10 0 -13 -7 -9 -22 18 -81 22
-109 16 -102 -4 5 -16 44 -26 87 -18 78 -26 96 -24 55z"/>
<path d="M1570 1022 c0 -19 32 -143 36 -139 6 5 -17 120 -27 137 -6 11 -8 11
-9 2z"/>
<path d="M1374 998 c3 -13 9 -40 12 -60 4 -21 13 -43 22 -50 14 -11 14 -9 8
22 -4 19 -10 52 -13 73 -4 24 -11 37 -20 37 -11 0 -14 -6 -9 -22z"/>
<path d="M1218 974 c-7 -13 12 -94 22 -94 5 0 7 15 3 33 -9 47 -19 72 -25 61z"/>
<path d="M1410 4445 c119 -15 209 -18 130 -5 -25 5 -88 10 -140 13 l-95 6 105
-14z"/>
<path d="M159 4433 c-12 -13 -14 -197 -17 -1090 -1 -735 1 -1080 8 -1093 8
-15 21 -20 53 -20 23 0 65 -3 94 -6 l52 -7 7 -53 c3 -30 10 -54 14 -54 9 0 -9
102 -21 114 -5 5 -47 12 -94 14 -70 4 -87 8 -96 23 -6 12 -8 400 -7 1089 3
1197 -4 1095 78 1086 31 -3 39 -2 25 4 -33 14 -82 11 -96 -7z"/>
<path d="M302 4428 c-17 -17 -15 -44 5 -63 18 -19 81 -15 94 6 5 9 41 9 153
-1 81 -7 149 -10 152 -8 5 6 -203 28 -259 28 -20 0 -40 6 -44 14 -19 32 -79
46 -101 24z m28 -34 c0 -31 -2 -35 -15 -24 -16 13 -20 42 -8 53 15 15 23 5 23
-29z m58 -1 c3 -19 -1 -23 -22 -23 -21 0 -26 5 -26 26 0 21 4 25 23 22 14 -2
23 -11 25 -25z"/>
<path d="M1282 4366 l-37 -34 -5 -271 c-3 -149 -2 -285 2 -303 4 -18 4 -161 1
-316 l-6 -284 -30 6 c-16 3 -65 6 -109 6 -43 0 -77 3 -75 8 3 4 -30 5 -72 4
-42 -2 -88 -2 -101 0 -23 3 -22 5 20 36 53 39 46 43 -11 5 -22 -14 -38 -31
-36 -37 2 -7 40 -12 95 -14 l91 -3 3 -56 c2 -36 8 -57 16 -59 7 -1 8 0 2 3 -5
2 -10 27 -10 54 l0 49 64 0 c35 0 84 -3 110 -6 l46 -7 0 -95 c0 -174 8 -90 14
153 3 132 9 436 13 675 l6 435 29 29 c27 27 33 28 86 22 63 -6 1541 -118 1797
-136 88 -6 255 -19 370 -29 186 -16 216 -21 262 -45 29 -14 56 -26 60 -26 4 1
-19 15 -52 32 -59 31 -67 32 -410 64 -352 34 -999 89 -1370 119 -110 8 -310
24 -445 35 -135 11 -253 20 -263 20 -9 0 -34 -15 -55 -34z"/>
<path d="M969 4373 c-13 -16 -12 -17 4 -4 9 7 17 15 17 17 0 8 -8 3 -21 -13z"/>
<path d="M4388 4317 c-35 -27 -25 -77 16 -77 47 0 60 50 20 76 -16 11 -23 11
-36 1z"/>
<path d="M730 4306 c0 -13 53 -107 58 -102 2 3 -10 29 -27 58 -17 29 -31 49
-31 44z"/>
<path d="M4181 4236 c-9 -11 -10 -20 -1 -36 13 -24 38 -23 53 1 23 37 -25 68
-52 35z"/>
<path d="M1350 4078 c0 -96 3 -138 10 -128 13 20 13 270 0 270 -6 0 -10 -54
-10 -142z"/>
<path d="M1154 4110 c0 -58 1 -81 3 -52 2 28 2 76 0 105 -2 28 -3 5 -3 -53z"/>
<path d="M1324 4080 c0 -74 1 -105 3 -67 2 37 2 97 0 135 -2 37 -3 6 -3 -68z"/>
<path d="M1500 4203 c0 -5 11 -20 25 -33 14 -13 25 -28 25 -34 0 -6 -18 -29
-40 -51 l-40 -41 24 -23 c21 -19 23 -27 15 -43 -6 -11 18 4 53 34 l64 54 62
-6 c34 -3 62 -3 62 1 0 4 -28 9 -62 11 -60 3 -66 2 -113 -34 l-50 -37 -17 22
c-10 12 -18 24 -18 27 0 3 18 23 40 45 l40 39 25 -24 c14 -13 27 -22 28 -19 2
2 -25 30 -60 63 -34 32 -63 54 -63 49z"/>
<path d="M4306 4118 c-61 -96 -202 -323 -231 -373 l-20 -35 23 -22 c21 -21 37
-24 265 -39 133 -8 252 -12 264 -8 46 16 39 40 -78 261 -120 228 -158 298
-165 298 -3 0 -28 -37 -58 -82z"/>
<path d="M729 4167 c-44 -34 -49 -83 -13 -126 19 -23 34 -31 59 -31 25 0 40 8
59 31 30 35 32 49 11 89 -24 47 -80 65 -116 37z"/>
<path d="M1621 4176 c11 -9 129 -15 129 -6 0 6 -30 10 -67 10 -36 0 -64 -2
-62 -4z"/>
<path d="M2215 4126 c17 -8 42 -27 57 -43 26 -27 118 -179 118 -195 0 -5 -12
-8 -27 -9 -27 -1 -26 -1 6 -11 19 -5 41 -19 51 -30 12 -16 32 -22 86 -27 38
-3 84 -5 102 -3 30 3 32 6 32 41 0 34 -3 39 -27 44 -32 6 -43 -6 -43 -45 0
-27 -2 -28 -47 -28 -75 0 -92 15 -156 130 -31 58 -60 112 -63 120 -6 19 -61
56 -94 64 -21 5 -20 3 5 -8z"/>
<path d="M1650 4121 c0 -7 22 -11 52 -11 62 0 60 5 -4 14 -32 5 -48 4 -48 -3z"/>
<path d="M2086 4085 c-61 -22 -89 -46 -119 -106 -38 -73 -35 -149 9 -211 35
-50 96 -88 139 -87 25 0 22 3 -18 13 -142 39 -192 214 -91 325 19 21 48 44 64
51 30 12 135 10 175 -4 12 -4 10 -2 -5 7 -39 23 -110 29 -154 12z"/>
<path d="M1645 4025 c26 -9 105 -12 105 -4 0 5 -26 9 -57 8 -32 0 -53 -2 -48
-4z"/>
<path d="M2066 3959 c-38 -45 -37 -110 3 -150 35 -34 72 -37 118 -9 87 53 45
190 -58 190 -29 0 -43 -7 -63 -31z"/>
<path d="M1575 3960 c39 -9 172 -14 164 -6 -2 2 -49 6 -104 9 -69 4 -88 3 -60
-3z"/>
<path d="M3343 3930 c21 -18 49 -54 63 -81 13 -27 29 -49 34 -49 13 0 13 8 0
23 -6 7 -24 33 -40 59 -16 26 -44 54 -62 63 l-33 17 38 -32z"/>
<path d="M2570 3940 c0 -5 16 -10 35 -10 19 0 35 5 35 10 0 6 -16 10 -35 10
-19 0 -35 -4 -35 -10z"/>
<path d="M1420 3924 c0 -8 5 -12 10 -9 6 3 10 10 10 16 0 5 -4 9 -10 9 -5 0
-10 -7 -10 -16z"/>
<path d="M2710 3931 c81 -13 253 -21 211 -11 -19 4 -87 11 -150 14 -81 3 -99
2 -61 -3z"/>
<path d="M3166 3921 c-102 -68 -92 -243 17 -294 65 -31 148 -11 177 43 17 31
22 106 10 149 -12 45 -64 98 -111 111 -47 14 -60 13 -93 -9z m148 -35 c32 -32
64 -101 53 -112 -3 -3 -10 10 -16 29 -17 49 -53 80 -98 82 -27 0 -39 6 -41 18
-3 13 4 17 32 17 27 0 43 -8 70 -34z"/>
<path d="M2990 3911 c0 -12 28 -22 35 -12 3 5 -2 12 -11 15 -21 8 -24 8 -24
-3z"/>
<path d="M3605 3890 c-4 -6 -15 -8 -26 -5 -11 4 -19 2 -19 -4 0 -6 6 -11 14
-11 7 0 16 -13 19 -29 4 -17 16 -35 28 -41 18 -10 25 -8 48 14 25 25 25 28 11
54 -16 28 -62 42 -75 22z"/>
<path d="M2300 3886 c0 -2 7 -6 15 -10 8 -3 15 -1 15 4 0 6 -7 10 -15 10 -8 0
-15 -2 -15 -4z"/>
<path d="M2670 3879 c0 -8 219 -24 226 -17 2 3 -48 9 -111 14 -63 5 -115 6
-115 3z"/>
<path d="M310 3850 c-13 -13 -20 -33 -20 -59 0 -32 6 -44 31 -65 50 -43 99
-31 119 28 27 81 -72 154 -130 96z"/>
<path d="M3474 3824 c-10 -8 -12 -12 -4 -7 8 4 38 10 65 14 l50 6 -46 2 c-28
0 -52 -5 -65 -15z"/>
<path d="M2681 3811 c14 -4 79 -11 145 -15 65 -4 132 -9 148 -13 17 -3 26 -1
23 4 -4 6 -53 13 -109 16 -57 4 -132 9 -168 12 -44 3 -57 2 -39 -4z"/>
<path d="M4607 3813 c-3 -5 32 -7 76 -5 141 4 156 9 40 10 -61 1 -114 -1 -116
-5z"/>
<path d="M495 3780 c22 -4 99 -10 170 -13 91 -4 109 -3 60 2 -112 13 -276 21
-230 11z"/>
<path d="M2457 3711 c-77 -72 -80 -73 -207 -91 -41 -5 -88 -12 -105 -14 -16
-3 4 -3 45 -1 41 2 102 9 135 15 55 11 67 18 139 86 44 41 76 74 73 74 -3 0
-39 -31 -80 -69z"/>
<path d="M525 3720 c33 -5 121 -10 195 -13 l135 -6 -145 14 c-80 7 -167 13
-195 13 l-50 -1 60 -7z"/>
<path d="M2566 3599 c-59 -74 -111 -135 -116 -137 -5 -2 -29 13 -55 32 -58 45
-121 73 -193 86 -95 17 -461 41 -480 31 -9 -5 -28 -21 -42 -36 l-25 -27 -7
-466 c-5 -257 -6 -481 -3 -498 7 -43 66 -115 117 -144 42 -23 53 -24 343 -33
l300 -9 30 38 c16 22 52 60 78 87 27 26 45 47 40 47 -11 0 -97 -90 -129 -133
l-20 -28 -299 9 c-246 7 -306 12 -331 25 -42 21 -102 92 -112 131 -13 51 2
957 16 983 27 49 50 52 252 37 102 -8 216 -19 254 -24 77 -12 173 -53 226 -99
l35 -30 -27 -27 -27 -28 -24 22 c-13 12 -27 22 -33 22 -5 0 4 -11 20 -23 l29
-24 -28 -37 c-20 -27 -34 -36 -47 -32 -47 15 -61 16 -32 3 17 -8 41 -29 53
-46 24 -33 60 -128 62 -158 0 -10 3 -13 6 -6 7 19 -24 116 -51 155 l-24 36 37
36 37 36 31 -53 c34 -57 53 -114 53 -164 0 -17 4 -34 9 -37 12 -8 3 67 -15
125 -8 25 -28 68 -45 94 l-30 48 25 25 25 26 20 -25 c42 -51 64 -112 72 -198
16 -171 -6 -312 -66 -411 -55 -91 -118 -138 -253 -191 -69 -27 -84 -29 -147
-23 -38 3 -85 12 -103 20 -44 18 -157 127 -191 184 l-26 45 3 234 c2 144 7
242 14 255 6 11 27 41 46 66 l36 45 -33 -30 c-68 -63 -69 -67 -77 -321 -7
-229 -7 -232 16 -280 28 -58 154 -188 201 -208 19 -8 68 -17 109 -21 70 -6 82
-4 158 25 153 59 248 143 292 258 23 59 40 180 40 277 l0 74 59 -37 c48 -29
61 -43 66 -69 6 -36 47 -73 79 -73 27 0 66 27 66 46 0 8 10 14 23 15 12 0 16
3 10 6 -7 2 -13 11 -13 19 0 10 13 14 49 14 42 0 49 3 54 23 5 20 5 20 -7 5
-9 -12 -27 -18 -55 -18 -35 0 -47 5 -68 30 -34 41 -82 41 -116 1 l-24 -29 -66
41 c-57 36 -66 46 -67 72 -1 36 -31 107 -66 153 -14 18 -24 36 -22 40 2 5 50
68 108 141 l105 133 80 -6 c44 -3 121 -8 170 -10 82 -5 85 -4 25 4 -36 4 -113
11 -171 15 l-106 7 -107 -133z"/>
<path d="M300 3630 c19 -5 103 -11 185 -14 146 -5 147 -4 35 4 -243 18 -257
19 -220 10z"/>
<path d="M330 3570 c94 -12 248 -19 225 -10 -11 4 -81 10 -155 13 -94 4 -115
3 -70 -3z"/>
<path d="M4110 3549 c32 -14 60 -16 315 -22 261 -7 239 0 -45 13 -118 6 -233
12 -255 15 -36 5 -37 4 -15 -6z"/>
<path d="M3370 3524 c-6 -14 -10 -45 -10 -70 l0 -44 -52 -1 c-29 -1 -69 -1
-88 1 -19 1 -32 -1 -28 -6 4 -4 44 -6 88 -6 l80 2 0 -49 c0 -27 6 -53 13 -59
6 -6 93 -15 192 -21 99 -6 205 -13 235 -16 43 -4 48 -3 25 4 -16 5 -120 15
-230 21 -113 7 -206 17 -214 23 -16 14 -11 211 6 228 12 12 461 -15 475 -29 4
-4 9 -61 11 -127 l3 -120 2 121 c2 98 -1 124 -13 134 -14 11 -312 38 -438 40
-42 0 -49 -3 -57 -26z"/>
<path d="M2716 3485 c-3 -9 -6 -32 -6 -51 l0 -34 -97 4 -98 5 95 -10 c55 -6
102 -17 111 -25 8 -8 31 -14 50 -13 34 1 33 1 -9 11 l-43 9 3 52 3 52 145 -4
c80 -2 174 -6 210 -10 62 -6 65 -7 68 -35 l4 -28 -119 6 c-65 4 -140 9 -168
11 -37 4 -44 3 -28 -4 12 -5 87 -13 167 -17 115 -5 146 -10 146 -21 0 -11 3
-11 14 -1 8 7 10 15 6 18 -5 3 -10 21 -12 40 -3 33 -5 35 -48 41 -25 4 -122
10 -216 14 -155 6 -172 6 -178 -10z"/>
<path d="M3600 3460 c-11 -11 -20 -28 -20 -38 0 -28 29 -62 54 -62 52 0 76 75
34 104 -30 21 -44 20 -68 -4z"/>
<path d="M372 3457 c-71 -22 -142 -126 -142 -207 0 -47 31 -118 68 -160 36
-40 153 -99 160 -81 1 4 14 6 27 3 16 -3 25 0 25 8 0 8 -11 11 -32 7 -113 -16
-231 97 -231 223 0 158 143 249 281 178 81 -42 130 -149 118 -259 -4 -33 -3
-38 3 -19 24 67 1 171 -51 234 -36 43 -118 86 -163 85 -16 -1 -45 -6 -63 -12z"/>
<path d="M1417 3373 c-4 -37 -7 -114 -7 -170 0 -62 -4 -103 -10 -103 -5 0 -10
7 -10 15 0 8 -9 19 -21 25 -37 20 -49 -3 -49 -96 l0 -84 88 0 c48 0 111 -3
140 -6 l52 -7 0 67 c0 55 -3 66 -17 66 -14 0 -15 11 -10 103 8 134 4 150 -39
145 l-33 -4 -3 56 -3 55 -36 3 -36 3 -6 -68z"/>
<path d="M2780 3423 c0 -5 5 -15 10 -23 8 -12 10 -11 10 8 0 12 -4 22 -10 22
-5 0 -10 -3 -10 -7z"/>
<path d="M4295 3420 c-51 -11 -99 -29 -93 -35 3 -3 22 2 43 11 51 21 168 21
230 0 68 -22 135 -74 173 -132 33 -50 42 -53 18 -5 -22 42 -102 110 -160 137
-59 27 -150 37 -211 24z"/>
<path d="M791 3384 c0 -11 3 -14 6 -6 3 7 2 16 -1 19 -3 4 -6 -2 -5 -13z"/>
<path d="M2810 3372 c0 -6 69 -13 160 -17 88 -4 160 -10 160 -14 0 -4 -4 -11
-8 -16 -5 -6 -1 -18 10 -28 17 -17 19 -17 16 -1 -2 9 4 19 12 22 8 3 12 1 7
-3 -4 -5 58 -40 137 -80 94 -46 153 -82 171 -103 15 -18 31 -32 36 -32 5 0
-13 23 -41 50 -28 28 -57 50 -65 50 -18 0 -215 100 -213 109 2 19 -3 32 -11
27 -5 -4 -17 -3 -26 0 -12 5 -13 9 -5 14 7 4 -55 11 -136 14 -82 4 -161 9
-176 12 -16 3 -28 1 -28 -4z"/>
<path d="M834 3350 c-45 -20 -55 -35 -53 -83 2 -29 2 -28 8 8 6 38 26 57 86
79 6 2 8 6 5 8 -3 3 -23 -3 -46 -12z"/>
<path d="M413 3353 c-36 -7 -73 -59 -73 -103 0 -46 15 -90 31 -90 8 0 7 5 -2
16 -8 9 -14 39 -15 66 0 27 2 44 6 37 6 -8 9 -8 14 0 4 6 2 11 -4 11 -21 0 9
38 39 48 30 11 30 10 25 -21 -10 -57 -26 -112 -34 -122 -11 -13 -1 -29 27 -44
34 -17 52 -13 84 18 52 52 36 141 -31 176 -16 8 -33 14 -37 14 -4 -1 -18 -4
-30 -6z"/>
<path d="M3030 3242 c-65 -67 -58 -69 13 -3 32 30 66 74 55 70 -2 0 -32 -31
-68 -67z"/>
<path d="M2150 3282 c0 -4 -20 -7 -44 -7 -53 -1 -108 -39 -143 -101 -25 -43
-31 -132 -12 -181 23 -62 109 -122 175 -123 40 0 96 19 88 31 -3 5 1 6 9 4 7
-3 22 5 33 17 19 23 19 23 -1 8 -18 -14 -19 -14 -7 2 8 9 19 15 26 12 14 -5
41 50 51 104 l7 32 -91 0 -91 0 0 96 0 97 32 -7 c43 -8 94 -59 125 -121 17
-34 23 -40 18 -21 -8 37 -59 112 -89 131 -28 19 -86 36 -86 27z m55 -272 c27
-27 47 -50 44 -50 -3 0 -27 23 -54 50 -27 28 -47 50 -44 50 3 0 27 -22 54 -50z"/>
<path d="M4130 3238 c-53 -87 -44 -220 19 -291 15 -18 16 -18 23 5 6 19 7 17
4 -7 -4 -26 1 -34 34 -58 21 -15 58 -34 81 -42 47 -17 175 -20 213 -5 l26 10
0 -205 0 -205 -70 0 -70 0 -2 167 c-3 159 -4 168 -23 171 -11 2 -30 8 -43 14
-19 10 -26 8 -43 -8 -23 -23 -17 -50 12 -59 19 -6 55 12 44 23 -2 3 -12 -1
-20 -8 -13 -11 -19 -11 -33 3 -15 16 -15 18 0 34 15 14 19 14 34 2 9 -7 26
-13 38 -14 20 0 21 -4 24 -162 l2 -163 -98 0 c-63 0 -102 -4 -110 -12 -9 -9
-12 -117 -12 -427 0 -228 2 -412 5 -409 3 2 5 186 5 408 0 277 4 408 12 417 7
9 39 13 104 13 l93 0 4 -67 3 -68 2 68 2 67 238 2 c198 2 211 3 75 5 l-163 3
0 215 0 215 199 0 c153 0 201 -3 210 -13 7 -9 12 -123 14 -353 l2 -339 3 345
c1 259 -1 349 -10 358 -8 8 -58 12 -160 12 l-149 0 26 37 c14 21 25 42 25 48
0 5 -14 -11 -31 -37 -31 -47 -32 -48 -85 -48 -30 0 -54 -4 -54 -9 0 -16 -61
-31 -126 -31 -68 0 -151 26 -194 61 l-25 20 23 16 c22 16 32 40 10 27 -7 -4
-8 -3 -4 4 4 7 14 12 22 12 8 0 13 -4 9 -9 -3 -6 28 9 68 31 61 34 73 45 70
62 -4 20 -3 20 13 -1 18 -25 43 -30 62 -11 8 8 15 8 26 -1 23 -19 56 -4 56 25
0 13 -6 25 -12 26 -7 0 -24 2 -38 4 -14 1 -37 6 -52 10 -21 5 -29 2 -34 -10
-7 -19 -22 -10 -153 96 -46 37 -87 68 -92 68 -5 0 -18 -15 -29 -32z m328 -154
c3 -22 -21 -39 -39 -28 -11 6 -12 38 -2 48 13 13 38 1 41 -20z m70 -7 c4 -20
-25 -34 -40 -19 -15 15 -1 44 19 40 10 -2 19 -11 21 -21z m-361 -79 c-2 -13
-4 -3 -4 22 0 25 2 35 4 23 2 -13 2 -33 0 -45z"/>
<path d="M3101 3165 c-16 -57 -27 -78 -44 -85 -17 -7 -18 -9 -5 -9 10 -1 24 9
32 22 16 25 49 137 43 143 -2 2 -14 -30 -26 -71z"/>
<path d="M754 3216 c-3 -8 -4 -23 -2 -33 5 -25 51 -25 56 0 7 36 -42 65 -54
33z"/>
<path d="M4740 3210 c-24 -24 -25 -40 -5 -66 14 -18 14 -17 4 8 -10 24 -9 31
6 48 23 26 76 26 99 1 12 -13 16 -32 14 -58 -2 -30 1 -40 17 -48 28 -14 31
-57 5 -80 -24 -22 -25 -38 -3 -56 15 -13 15 -12 2 8 -12 20 -11 25 9 46 28 29
29 73 2 87 -15 8 -20 21 -20 50 0 51 -27 80 -75 80 -22 0 -43 -8 -55 -20z"/>
<path d="M4453 3210 c2 -9 18 -16 41 -18 22 -2 36 1 32 6 -3 5 -17 7 -32 4
-16 -3 -30 1 -36 9 -8 12 -9 11 -5 -1z"/>
<path d="M3340 3167 c-81 -41 -53 -157 38 -157 48 0 72 24 72 72 0 50 -8 66
-41 83 -34 18 -37 18 -69 2z"/>
<path d="M2984 3156 c-15 -12 -17 -18 -8 -33 15 -24 58 -24 62 0 4 18 -14 47
-27 47 -4 0 -16 -6 -27 -14z"/>
<path d="M3702 3158 c-21 -21 -15 -75 10 -92 29 -20 34 -20 58 4 24 24 26 63
4 84 -18 19 -55 21 -72 4z"/>
<path d="M816 3130 c6 -6 35 -23 64 -38 43 -22 56 -35 62 -60 5 -20 24 -44 52
-64 37 -28 45 -41 54 -87 7 -30 10 -57 7 -59 -3 -3 -122 0 -266 7 -143 8 -262
11 -265 9 -6 -6 137 -16 364 -24 100 -4 182 -10 182 -13 0 -3 38 -5 84 -3 l84
3 4 -93 c5 -115 29 -167 123 -267 36 -38 65 -75 65 -84 0 -8 12 -25 28 -37 15
-12 21 -18 13 -14 -7 3 -17 0 -22 -7 -7 -11 -9 -11 -9 2 0 19 -34 31 -48 17
-13 -13 -4 -45 14 -52 29 -11 115 6 125 26 12 22 -7 69 -31 76 -10 3 -8 -1 4
-10 24 -19 11 -27 -31 -21 -38 6 -42 20 -10 33 20 9 20 10 1 7 -27 -3 -158
138 -187 201 -18 39 -23 74 -27 202 -4 85 -7 134 -8 108 -1 -32 -6 -48 -15
-48 -23 0 -187 103 -187 117 0 8 -4 12 -10 8 -14 -9 -72 48 -84 83 -9 26 -24
38 -76 63 -36 17 -60 25 -54 19z m381 -287 c24 -10 43 -22 43 -26 0 -4 -37 -7
-81 -5 l-82 3 -13 45 c-21 69 -18 71 38 35 29 -19 71 -43 95 -52z m290 -559
c-3 -3 -12 -4 -19 -1 -8 3 -5 6 6 6 11 1 17 -2 13 -5z"/>
<path d="M4780 3127 c0 -8 -9 -19 -20 -22 -20 -6 -32 -34 -28 -70 2 -17 8 -20
41 -18 72 4 86 38 37 93 -20 23 -30 28 -30 17z m34 -43 c9 -8 16 -19 16 -23 0
-17 -30 -32 -57 -29 -34 4 -44 35 -17 55 23 17 39 16 58 -3z"/>
<path d="M2481 3073 l-1 -33 -66 0 c-56 0 -65 -2 -60 -16 3 -9 6 -18 6 -20 0
-2 8 -4 18 -4 15 1 15 2 -2 15 -18 14 -14 15 42 15 67 0 78 8 69 52 -3 17 -5
15 -6 -9z"/>
<path d="M3173 3093 c20 -2 54 -2 75 0 20 2 3 4 -38 4 -41 0 -58 -2 -37 -4z"/>
<path d="M3558 3093 c39 -5 41 -10 52 -105 l9 -73 -4 78 c-4 89 -14 108 -59
105 l-31 -1 33 -4z"/>
<path d="M2884 3054 c0 -27 2 -31 13 -23 16 14 17 33 1 47 -10 8 -13 2 -14
-24z"/>
<path d="M3676 3018 c3 -5 47 -7 97 -7 102 2 92 7 -25 11 -42 2 -74 0 -72 -4z"/>
<path d="M660 2998 c0 -5 62 -7 138 -6 139 2 122 5 -46 10 -50 2 -92 0 -92 -4z"/>
<path d="M1021 2994 c0 -11 3 -14 6 -6 3 7 2 16 -1 19 -3 4 -6 -2 -5 -13z"/>
<path d="M3042 2998 c-7 -7 -17 -14 -22 -14 -6 -1 -14 -2 -20 -3 -14 -1 -13
-31 1 -31 6 0 17 -7 26 -16 17 -17 68 -11 91 10 11 10 10 16 -5 33 -23 27 -56
36 -71 21z"/>
<path d="M370 2950 c-7 -17 -10 -33 -8 -36 3 -3 11 9 17 27 14 42 7 49 -9 9z"/>
<path d="M3318 2963 c29 -2 74 -2 100 0 26 2 2 3 -53 3 -55 0 -76 -1 -47 -3z"/>
<path d="M655 2940 c3 -5 41 -9 83 -9 75 2 76 2 27 9 -73 12 -117 12 -110 0z"/>
<path d="M1478 2783 c-2 -76 -2 -171 -1 -211 2 -71 25 -176 41 -186 5 -3 0 21
-11 52 -17 50 -19 83 -18 270 1 116 -1 212 -4 212 -3 0 -6 -62 -7 -137z"/>
<path d="M3318 2913 c29 -2 74 -2 100 0 26 2 2 3 -53 3 -55 0 -76 -1 -47 -3z"/>
<path d="M350 2878 c0 -28 40 -48 95 -47 l50 2 -57 6 c-61 7 -59 6 -76 36 -10
17 -11 17 -12 3z"/>
<path d="M1433 2830 c0 -36 2 -50 4 -32 2 17 2 47 0 65 -2 17 -4 3 -4 -33z"/>
<path d="M2387 2873 c-9 -9 12 -33 30 -33 11 0 11 4 3 20 -11 21 -22 25 -33
13z"/>
<path d="M4673 2813 c37 -2 96 -2 130 0 34 2 4 3 -68 3 -71 0 -99 -1 -62 -3z"/>
<path d="M3390 2751 c0 -9 -22 -12 -84 -9 -46 2 -82 0 -79 -4 2 -5 38 -8 80
-8 59 0 74 -3 70 -13 -3 -8 -2 -19 2 -26 5 -8 10 2 14 25 4 21 4 40 2 43 -3 2
-5 -1 -5 -8z"/>
<path d="M3133 2743 c15 -2 37 -2 50 0 12 2 0 4 -28 4 -27 0 -38 -2 -22 -4z"/>
<path d="M4693 2740 c-24 -10 -53 -58 -53 -89 0 -29 48 -81 74 -81 12 0 32 10
44 23 38 40 23 67 -23 43 -33 -17 -55 -11 -55 15 0 12 9 21 25 25 21 5 25 12
25 40 0 36 -3 38 -37 24z"/>
<path d="M4755 2738 c11 -6 26 -18 33 -26 9 -12 12 -12 12 -3 0 17 -30 40 -50
40 -10 0 -9 -3 5 -11z"/>
<path d="M3465 2730 c-12 -4 7 -6 45 -3 36 3 67 7 69 9 9 8 -95 2 -114 -6z"/>
<path d="M779 2687 c-87 -32 -145 -105 -156 -196 -12 -101 67 -203 169 -217
92 -13 182 59 208 164 35 148 -95 295 -221 249z m124 -24 c76 -38 113 -184 68
-270 -61 -120 -195 -145 -283 -52 -83 88 -69 219 34 302 58 47 115 53 181 20z"/>
<path d="M807 2643 c-5 -4 -12 -8 -17 -8 -11 0 -92 -76 -87 -81 2 -3 21 12 40
31 20 20 41 34 47 30 5 -3 10 -26 10 -51 0 -36 3 -44 19 -44 10 0 30 -9 44
-20 16 -13 40 -20 66 -20 37 0 41 2 41 26 0 38 -28 91 -61 115 -32 23 -90 35
-102 22z"/>
<path d="M740 2504 c19 -22 40 -49 47 -60 10 -17 11 -16 5 7 -4 14 -25 41 -47
60 l-40 34 35 -41z"/>
<path d="M3304 2678 c-19 -23 -19 -23 1 -7 11 9 27 19 35 22 13 5 13 6 -1 6
-9 1 -24 -9 -35 -21z"/>
<path d="M3371 2654 c0 -11 3 -14 6 -6 3 7 2 16 -1 19 -3 4 -6 -2 -5 -13z"/>
<path d="M3431 2633 c-10 -26 -10 -27 4 -9 8 11 15 23 15 28 0 15 -7 8 -19
-19z"/>
<path d="M3361 2614 c0 -11 3 -14 6 -6 3 7 2 16 -1 19 -3 4 -6 -2 -5 -13z"/>
<path d="M3351 2574 c0 -11 3 -14 6 -6 3 7 2 16 -1 19 -3 4 -6 -2 -5 -13z"/>
<path d="M4609 2556 c37 -45 135 -60 196 -30 l30 14 -30 -7 c-16 -4 -56 -8
-87 -8 -44 0 -64 5 -90 24 -20 15 -27 18 -19 7z"/>
<path d="M4580 2468 c0 -4 76 -8 170 -8 168 0 170 0 175 -22 3 -13 4 -216 3
-453 l-3 -430 -329 -3 c-257 -2 -331 1 -338 10 -4 7 -8 171 -8 365 l0 352 277
0 c152 1 279 3 281 6 3 3 -124 5 -282 5 l-286 0 2 -370 c3 -359 2 -370 -16
-370 -11 0 -28 7 -38 17 -10 9 -18 11 -18 5 0 -27 51 -33 382 -39 257 -5 349
-3 366 6 l22 12 0 448 c0 405 -2 450 -17 462 -12 11 -57 14 -180 15 -89 0
-163 -3 -163 -8z"/>
<path d="M3367 2392 c-10 -37 -29 -85 -43 -106 -32 -47 -159 -148 -224 -178
-28 -13 -50 -27 -50 -31 0 -4 33 9 72 30 47 24 101 65 150 113 70 69 78 81 98
147 12 40 20 77 18 83 -2 6 -11 -20 -21 -58z"/>
<path d="M2472 2330 c-29 -22 -56 -40 -60 -40 -16 0 -30 -37 -20 -51 8 -11 9
-11 4 3 -3 12 14 31 65 68 60 45 77 60 67 60 -2 0 -27 -18 -56 -40z"/>
<path d="M2379 2333 c-13 -16 -12 -17 4 -4 9 7 17 15 17 17 0 8 -8 3 -21 -13z"/>
<path d="M1902 2317 c-12 -13 -22 -33 -22 -45 0 -12 -6 -22 -12 -22 -7 0 -80
18 -162 40 -83 22 -152 38 -154 35 -5 -5 68 -26 213 -61 90 -22 124 -34 138
-51 37 -46 127 -10 127 50 0 67 -83 102 -128 54z"/>
<path d="M2350 2304 c0 -8 5 -12 10 -9 6 4 8 11 5 16 -9 14 -15 11 -15 -7z"/>
<path d="M2165 2280 l-130 -6 127 -2 c90 -1 128 -6 131 -14 2 -7 7 -11 9 -8 3
3 3 12 -1 20 -5 13 -26 14 -136 10z"/>
<path d="M2330 2263 c8 -3 18 -11 22 -17 5 -7 8 -4 8 7 0 11 -7 17 -22 16 -16
0 -18 -2 -8 -6z"/>
<path d="M1238 2190 c-26 -27 -48 -56 -48 -64 0 -10 -13 -16 -37 -19 l-38 -4
40 -1 c38 -2 42 0 54 33 13 37 65 85 103 97 23 6 23 6 -1 7 -17 1 -39 -14 -73
-49z"/>
<path d="M1854 2205 c-18 -13 -18 -14 4 -8 12 3 25 9 28 14 8 14 -10 11 -32
-6z"/>
<path d="M2165 2159 l-60 -51 -88 6 c-89 6 -130 20 -177 60 l-25 21 24 -27
c36 -41 80 -57 174 -64 l86 -7 55 42 c50 38 84 71 75 71 -2 0 -31 -23 -64 -51z"/>
<path d="M2346 2144 c-10 -35 -19 -65 -20 -65 0 -1 -59 -5 -131 -8 l-130 -8
112 -1 c146 -3 155 1 178 77 10 34 16 63 14 66 -3 2 -13 -25 -23 -61z"/>
<path d="M4510 1890 l0 -300 53 -2 c28 -1 96 -3 150 -3 l97 -1 0 188 0 188
-60 0 -60 0 0 65 0 65 -50 0 -50 0 0 50 0 50 -40 0 -40 0 0 -300z"/>
<path d="M4390 2035 l0 -145 -38 0 -39 0 -6 -107 c-4 -58 -7 -126 -7 -150 l0
-43 98 0 97 0 -3 295 -3 295 -49 0 -50 0 0 -145z"/>
<path d="M835 2130 c-44 -14 -102 -66 -127 -113 -17 -33 -22 -59 -22 -118 0
-93 6 -104 42 -85 15 7 56 23 92 35 61 21 68 21 95 7 17 -9 40 -16 52 -16 13
0 30 -12 43 -30 26 -37 63 -39 111 -7 62 42 72 130 24 212 -26 45 -88 85 -131
85 -15 0 -35 7 -45 16 -22 20 -92 27 -134 14z"/>
<path d="M410 2101 c0 -12 6 -21 16 -21 9 0 14 7 12 17 -5 25 -28 28 -28 4z"/>
<path d="M280 2090 c0 -5 7 -10 16 -10 8 0 12 5 9 10 -3 6 -10 10 -16 10 -5 0
-9 -4 -9 -10z"/>
<path d="M4973 2034 c15 -18 17 -46 17 -245 0 -166 -3 -229 -12 -239 -11 -12
-10 -12 5 -1 15 12 17 36 17 241 0 223 0 227 -22 246 -23 19 -23 19 -5 -2z"/>
<path d="M2432 2019 c-24 -10 -71 -26 -105 -35 -34 -8 -90 -24 -123 -35 -56
-19 -70 -20 -169 -10 -116 12 -151 13 -144 7 2 -2 63 -9 134 -16 114 -10 136
-10 168 3 20 9 80 27 132 41 52 14 112 34 133 45 47 26 30 26 -26 0z"/>
<path d="M313 2019 c-27 -27 -3 -99 32 -99 5 0 0 7 -11 15 -19 15 -19 15 1 8
26 -9 41 -24 49 -50 4 -11 15 -28 26 -38 16 -15 22 -15 35 -5 8 7 15 18 14 24
0 7 -2 6 -6 -1 -9 -23 -43 -14 -53 13 -14 35 -13 37 12 31 14 -4 26 0 34 11
10 14 14 14 28 3 11 -9 16 -10 16 -2 0 6 -4 11 -9 11 -5 0 -18 17 -28 38 -13
26 -25 38 -43 39 -14 1 -38 5 -55 8 -18 4 -35 1 -42 -6z m62 -24 c0 -12 -10
-23 -27 -29 -34 -12 -42 -5 -34 29 5 21 12 26 34 23 19 -2 27 -9 27 -23z m69
-10 c6 -16 -9 -21 -19 -5 -3 5 -12 7 -20 3 -8 -3 -15 0 -15 6 0 17 47 13 54
-4z m6 -37 c0 -4 -4 -10 -10 -13 -5 -3 -10 1 -10 9 0 8 -4 17 -9 20 -5 4 -7
-3 -4 -15 5 -18 2 -20 -23 -17 -36 4 -39 30 -4 38 24 6 60 -7 60 -22z"/>
<path d="M4723 1993 c15 -2 39 -2 55 0 15 2 2 4 -28 4 -30 0 -43 -2 -27 -4z"/>
<path d="M591 1510 c-30 -22 -50 -40 -44 -40 12 0 88 54 98 69 9 16 5 14 -54
-29z"/>
<path d="M337 1485 c9 -19 18 -33 21 -31 4 5 -26 66 -33 66 -3 0 3 -16 12 -35z"/>
<path d="M736 1449 c-31 -35 -41 -40 -64 -35 -91 22 -105 20 -172 -23 -35 -23
-57 -41 -49 -41 8 0 37 16 66 36 43 30 59 35 85 30 110 -20 103 -22 138 23
l33 40 101 4 101 3 -101 2 -101 2 -37 -41z"/>
<path d="M340 1390 c0 -5 7 -7 15 -4 8 4 15 8 15 10 0 2 -7 4 -15 4 -8 0 -15
-4 -15 -10z"/>
<path d="M378 1372 c-16 -9 -28 -20 -28 -25 0 -4 5 -5 10 -2 6 4 19 1 28 -7
15 -12 16 -11 4 4 -12 14 -10 19 15 32 15 8 21 15 13 15 -8 0 -27 -7 -42 -17z"/>
<path d="M1658 1203 c29 -2 74 -2 100 0 26 2 2 3 -53 3 -55 0 -76 -1 -47 -3z"/>
</g>
</svg>